<svg version="1.1" xmlns="http://www.w3.org/2000/svg" xmlns:xlink="http://www.w3.org/1999/xlink" x="0px" y="0px" width="512px" height="512px" viewBox="0 0 512 512" style="enable-background:new 0 0 512 512;" xml:space="preserve">
<g id="_x36_6_x2C__Archive_x2C__Document_x2C__File_x2C__List">
<g>
<g>
<path d="M377.5,81h-29v21.333c0,7.536-6.131,13.667-13.667,13.667H182.167c-7.536,0-13.667-6.131-13.667-13.667V81h-29
				c-11.579,0-21,9.42-21,21v358c0,11.579,9.421,21,21,21h238c11.579,0,21-9.421,21-21V102C398.5,90.42,389.079,81,377.5,81z
				 M218.678,171H303.5c2.762,0,5,2.239,5,5s-2.238,5-5,5h-84.822c-2.761,0-5-2.239-5-5S215.917,171,218.678,171z M197.071,354.499
				l-29.394,30c-0.943,0.964-2.232,1.501-3.57,1.501c-0.133,0-0.267-0.005-0.399-0.016c-1.479-0.118-2.828-0.887-3.684-2.098
				l-10.606-15c-1.595-2.255-1.06-5.375,1.195-6.969c2.256-1.595,5.375-1.06,6.97,1.195l7.146,10.106l25.199-25.719
				c1.932-1.974,5.099-2.005,7.07-0.072C198.972,349.361,199.004,352.526,197.071,354.499z M197.071,294.499l-29.394,30
				c-0.943,0.964-2.232,1.501-3.57,1.501c-0.133,0-0.267-0.005-0.399-0.016c-1.479-0.118-2.828-0.887-3.684-2.098l-10.606-15
				c-1.595-2.255-1.06-5.375,1.195-6.969c2.256-1.595,5.375-1.06,6.97,1.195l7.146,10.106l25.199-25.719
				c1.932-1.974,5.099-2.005,7.07-0.072C198.972,289.361,199.004,292.526,197.071,294.499z M197.071,234.499l-29.394,30
				c-0.943,0.964-2.232,1.501-3.57,1.501c-0.133,0-0.267-0.005-0.399-0.016c-1.479-0.118-2.828-0.887-3.684-2.098l-10.606-15
				c-1.595-2.255-1.06-5.375,1.195-6.969c2.256-1.595,5.375-1.059,6.97,1.196l7.146,10.106l25.199-25.719
				c1.932-1.972,5.099-2.005,7.07-0.072C198.972,229.361,199.004,232.527,197.071,234.499z M197.071,174.499l-29.394,30
				c-0.943,0.964-2.232,1.501-3.57,1.501c-0.133,0-0.267-0.005-0.399-0.016c-1.479-0.118-2.828-0.886-3.684-2.097l-10.606-15
				c-1.595-2.255-1.06-5.375,1.195-6.969c2.256-1.594,5.375-1.059,6.97,1.196l7.146,10.107l25.199-25.719
				c1.932-1.972,5.099-2.006,7.07-0.072C198.972,169.361,199.004,172.527,197.071,174.499z M368.5,385.822H218.678
				c-2.761,0-5-2.238-5-5s2.239-5,5-5H368.5c2.762,0,5,2.238,5,5S371.262,385.822,368.5,385.822z M213.678,356c0-2.762,2.239-5,5-5
				H303.5c2.762,0,5,2.238,5,5s-2.238,5-5,5h-84.822C215.917,361,213.678,358.762,213.678,356z M368.5,325.822H218.678
				c-2.761,0-5-2.238-5-5s2.239-5,5-5H368.5c2.762,0,5,2.238,5,5S371.262,325.822,368.5,325.822z M213.678,296c0-2.762,2.239-5,5-5
				H303.5c2.762,0,5,2.238,5,5s-2.238,5-5,5h-84.822C215.917,301,213.678,298.762,213.678,296z M368.5,265.822H218.678
				c-2.761,0-5-2.238-5-5s2.239-5,5-5H368.5c2.762,0,5,2.238,5,5S371.262,265.822,368.5,265.822z M213.678,236c0-2.761,2.239-5,5-5
				H303.5c2.762,0,5,2.239,5,5s-2.238,5-5,5h-84.822C215.917,241,213.678,238.761,213.678,236z M368.5,205.822H218.678
				c-2.761,0-5-2.239-5-5s2.239-5,5-5H368.5c2.762,0,5,2.239,5,5S371.262,205.822,368.5,205.822z" id="id_128" style="fill: rgb(240, 168, 209);"></path>
<path d="M468.5,136c0-8.271-6.729-15-15-15s-15,6.729-15,15s6.729,15,15,15S468.5,144.271,468.5,136z" id="id_129" style="fill: rgb(163, 81, 128);"></path>
<path d="M58.5,346c-13.785,0-25,11.215-25,25s11.215,25,25,25s25-11.215,25-25S72.285,346,58.5,346z" id="id_130" style="fill: rgb(117, 23, 76);"></path>
<path d="M182.167,106h152.666c2.022,0,3.667-1.645,3.667-3.667V74.667c0-2.021-1.645-3.667-3.667-3.667h-31.616
				c-2.549,0-4.689-1.917-4.97-4.45C296.006,46.283,278.918,31,258.5,31s-37.506,15.283-39.747,35.55
				c-0.28,2.533-2.421,4.45-4.97,4.45h-31.616c-2.021,0-3.667,1.645-3.667,3.667v27.667C178.5,104.355,180.146,106,182.167,106z" id="id_131" style="fill: rgb(92, 67, 81);"></path>
<circle cx="470.998" cy="253.498" r="7.5" id="id_132" style="fill: rgb(179, 86, 139);"></circle>
<circle cx="75.999" cy="48.498" r="7.5" id="id_133" style="fill: rgb(230, 16, 137);"></circle>
<circle cx="45.999" cy="203.502" r="7.5" id="id_134" style="fill: rgb(230, 95, 171);"></circle>
<circle cx="71.002" cy="453.502" r="7.5" id="id_135" style="fill: rgb(150, 104, 130);"></circle>
<circle cx="436.002" cy="388.498" r="7.5" id="id_136" style="fill: rgb(204, 138, 176);"></circle>
</g>
</g>
</g>
<g id="Layer_1">
</g>
</svg>